HIERARCHY
ROOT Hips
{
  OFFSET 50.3391 51.4684 1.80177
  CHANNELS 6 Xposition Yposition Zposition Zrotation Xrotation Yrotation
  JOINT spine
  {
    OFFSET 0 7.80059 0.448573
    CHANNELS 3 Zrotation Xrotation Yrotation
    JOINT spine1
    {
      OFFSET 0 10.1364 0
      CHANNELS 3 Zrotation Xrotation Yrotation
      JOINT spine2
      {
        OFFSET 0 9.71251 0
        CHANNELS 3 Zrotation Xrotation Yrotation
        JOINT Neck
        {
          OFFSET 0 24.9361 1.18887
          CHANNELS 3 Zrotation Xrotation Yrotation
          JOINT Head
          {
            OFFSET 0 7.53384 0
            CHANNELS 3 Zrotation Xrotation Yrotation
            End Site
            {
              OFFSET 0 18.2361 -6.01402
            }
          }
        }
        JOINT RightShoulder
        {
          OFFSET -4.08965 10.4888 -0.569457
          CHANNELS 3 Zrotation Xrotation Yrotation
          JOINT RightArm
          {
            OFFSET 0 13.757 0
            CHANNELS 3 Zrotation Xrotation Yrotation
            JOINT RightArmRoll
            {
              OFFSET 0 6.94478 0
              CHANNELS 3 Zrotation Xrotation Yrotation
              JOINT RightForeArm
              {
                OFFSET 0 20.2277 0
                CHANNELS 3 Zrotation Xrotation Yrotation
                JOINT RightForeArmRoll
                {
                  OFFSET 0 7.79312 0
                  CHANNELS 3 Zrotation Xrotation Yrotation
                  JOINT RightHand
                  {
                    OFFSET 0 15.6391 0
                    CHANNELS 3 Zrotation Xrotation Yrotation
                    End Site
                    {
                      OFFSET 0 0 0
                    }
                  }
                }
              }
            }
          }
        }
        JOINT LeftShoulder
        {
          OFFSET 4.08965 10.4888 -0.569457
          CHANNELS 3 Zrotation Xrotation Yrotation
          JOINT LeftArm
          {
            OFFSET 0 13.757 0
            CHANNELS 3 Zrotation Xrotation Yrotation
            JOINT LeftArmRoll
            {
              OFFSET 0 6.94478 0
              CHANNELS 3 Zrotation Xrotation Yrotation
              JOINT LeftForeArm
              {
                OFFSET 0 20.2277 0
                CHANNELS 3 Zrotation Xrotation Yrotation
                JOINT LeftForeArmRoll
                {
                  OFFSET 0 7.79313 0
                  CHANNELS 3 Zrotation Xrotation Yrotation
                  JOINT LeftHand
                  {
                    OFFSET 0 15.6391 0
                    CHANNELS 3 Zrotation Xrotation Yrotation
                    End Site
                    {
                      OFFSET 0 0 0
                    }
                  }
                }
              }
            }
          }
        }
      }
    }
  }
  JOINT RightUpLeg
  {
    OFFSET -6.91416 -1.26788 -1.06358
    CHANNELS 3 Zrotation Xrotation Yrotation
    JOINT RightUpLegRoll
    {
      OFFSET 0 18.3378 0
      CHANNELS 3 Zrotation Xrotation Yrotation
      JOINT RightLeg
      {
        OFFSET 0 -22.7085 0
        CHANNELS 3 Zrotation Xrotation Yrotation
        JOINT RightLegRoll
        {
          OFFSET 0 22.7828 0
          CHANNELS 3 Zrotation Xrotation Yrotation
          JOINT RightFoot
          {
            OFFSET 0 18.9629 0
            CHANNELS 3 Zrotation Xrotation Yrotation
            JOINT RightToeBase
            {
              OFFSET 0 15.852 0
              CHANNELS 3 Zrotation Xrotation Yrotation
              End Site
              {
                OFFSET 0.00671906 7.67701 -0.884892
              }
            }
          }
        }
      }
    }
  }
  JOINT LeftUpLeg
  {
    OFFSET 6.91416 -1.26788 -1.06358
    CHANNELS 3 Zrotation Xrotation Yrotation
    JOINT LeftUpLegRoll
    {
      OFFSET 0 18.3379 0
      CHANNELS 3 Zrotation Xrotation Yrotation
      JOINT LeftLeg
      {
        OFFSET 0 22.7084 0
        CHANNELS 3 Zrotation Xrotation Yrotation
        JOINT LeftLegRoll
        {
          OFFSET 0 22.9934 0
          CHANNELS 3 Zrotation Xrotation Yrotation
          JOINT LeftFoot
          {
            OFFSET 0 18.7522 0
            CHANNELS 3 Zrotation Xrotation Yrotation
            JOINT LeftToeBase
            {
              OFFSET 0 15.852 0
              CHANNELS 3 Zrotation Xrotation Yrotation
              End Site
              {
                OFFSET -0.030112 7.67701 -0.884893
              }
            }
          }
        }
      }
    }
  }
}
MOTION
Frames: 8
Frame Time: 0.00208333
54.8543 93.8231 36.9035 -1.68058 -1.95328 2.55503 0.322711 -1.10694 0.0250744 0.648725 1.78894 0.0255968 0.649251 3.43396 0.0147119 -4.43339 21.5622 1.21413 2.17058 -9.85151 0.120785 81.0053 -4.486 -4.20041 89.7091 2.0272 17.9402 4.37326e-015 -7.95139e-016 3.18055e-015 10.7917 18.2872 -2.91121 -2.44912e-005 3.21514e-006 -3 8.02896 -4.95149 0.697711 -62.6262 -2.87859 2.12238 -108.676 -2.85609 -12.2306 7.55382e-015 3.97569e-015 6.36111e-015 -7.01232 16.3803 2.29047 5.55889e-006 8.89805e-007 3 -8.02928 -4.95144 -0.69766 -179.117 2.38112 -2.0221 180 7.01554e-015 178.956 179.169 11.4511 179.446 1.60277e-006 -1.13988e-006 0.181179 -19.6658 70.5126 21.7932 8.13649 25.2327 -3.48773 -177.683 3.21046 5.16464 4.54188e-006 -4.6773e-006 -1.25842 -4.38466 -15.2281 -0.23164 1.02381e-006 2.82354e-007 -0.354752 26.8445 73.2499 -25.6818 -8.13719 25.243 3.48937 
54.8557 93.8194 36.8909 -1.67853 -1.9515 2.61604 0.322541 -1.10039 0.0232878 0.649148 1.80203 0.0211504 0.649725 3.44704 0.010252 -4.4628 21.5791 1.21065 2.18394 -9.80762 0.10825 80.9659 -4.49167 -4.20027 89.7616 2.02225 17.8814 1.98785e-016 1.59028e-015 6.36111e-015 10.8199 18.3238 -2.91891 -2.44912e-005 3.21514e-006 -3 8.02896 -4.95149 0.697711 -62.6473 -2.86707 2.11765 -108.651 -2.81797 -12.2523 -9.14409e-015 -1.59028e-015 6.36111e-015 -6.98834 16.3463 2.28245 5.55889e-006 8.89805e-007 3 -8.02928 -4.95144 -0.69766 -179.111 2.37834 -2.02439 180 7.01554e-015 178.956 179.169 11.4538 179.447 1.60277e-006 -1.13988e-006 0.181176 -19.6816 70.5209 21.8027 8.13649 25.2327 -3.48773 -177.687 3.2375 5.1771 4.54188e-006 -4.6773e-006 -1.25801 -4.37152 -15.2477 -0.229627 1.02381e-006 2.82354e-007 -0.355109 26.8277 73.2462 -25.6771 -8.13719 25.243 3.48937 
54.8567 93.8108 36.8928 -1.67589 -1.95075 2.67747 0.322292 -1.09367 0.0214892 0.649453 1.81545 0.0166501 0.650082 3.46046 0.00573984 -4.49512 21.5969 1.20742 2.20177 -9.76551 0.0957274 80.9264 -4.49742 -4.20014 89.8148 2.01624 17.8275 -9.74045e-015 3.97569e-015 9.54166e-015 10.8457 18.3598 -2.92634 -2.44912e-005 3.21514e-006 -3 8.02896 -4.95149 0.697711 -62.6684 -2.85544 2.11286 -108.625 -2.78001 -12.2744 -2.78299e-015 -7.95139e-016 6.36111e-015 -6.96412 16.3113 2.27428 5.55889e-006 8.89805e-007 3 -8.02928 -4.95144 -0.69766 -179.106 2.37399 -2.02587 180 7.01554e-015 178.956 179.168 11.4564 179.447 1.60277e-006 -1.13988e-006 0.18117 -19.6975 70.5296 21.8125 8.13649 25.2327 -3.48773 -177.691 3.26247 5.19041 4.54188e-006 -4.6773e-006 -1.25761 -4.35804 -15.266 -0.227554 1.02381e-006 2.82354e-007 -0.35547 26.8108 73.2421 -25.6722 -8.13719 25.243 3.48937 
54.8504 93.8128 36.8834 -1.67285 -1.95073 2.73921 0.321989 -1.08683 0.0196824 0.649675 1.82911 0.0121118 0.650358 3.47413 0.00119098 -4.52948 21.6153 1.20436 2.22272 -9.72465 0.0832148 80.8868 -4.50321 -4.20003 89.8684 2.00949 17.7769 -5.76476e-015 3.97569e-015 6.36111e-015 10.8697 18.3952 -2.93357 -2.44912e-005 3.21514e-006 -3 8.02896 -4.95149 0.697711 -62.6896 -2.84374 2.10802 -108.599 -2.74218 -12.297 1.15295e-014 6.36111e-015 -0 -6.93974 16.2756 2.266 5.55889e-006 8.89805e-007 3 -8.02928 -4.95144 -0.69766 -179.101 2.36855 -2.02678 180 7.01554e-015 178.956 179.167 11.4589 179.448 1.60277e-006 -1.13988e-006 0.181163 -19.7136 70.5386 21.8226 8.13649 25.2327 -3.48773 -177.696 3.286 5.20432 4.54188e-006 -4.6773e-006 -1.25724 -4.34433 -15.2834 -0.225437 1.02381e-006 2.82354e-007 -0.355832 26.7938 73.2378 -25.667 -8.13719 25.243 3.48937 
54.846 93.8178 36.8773 -1.66957 -1.95113 2.80112 0.321654 -1.07993 0.0178709 0.649852 1.84291 0.00755199 0.650588 3.48792 -0.0033789 -4.56501 21.6339 1.2014 2.24547 -9.6845 0.0707091 80.8472 -4.50903 -4.19993 89.9224 2.00231 17.7282 1.86858e-014 -5.56597e-015 6.36111e-015 10.8927 18.4304 -2.94069 -2.44912e-005 3.21514e-006 -3 8.02896 -4.95149 0.697711 -62.7108 -2.83199 2.10317 -108.573 -2.70441 -12.3198 -3.29983e-014 -1.11319e-014 9.54166e-015 -6.91527 16.2395 2.25766 5.55889e-006 8.89805e-007 3 -8.02928 -4.95144 -0.69766 -179.097 2.36247 -2.02735 180 7.01554e-015 178.956 179.167 11.4613 179.449 1.60277e-006 -1.13988e-006 0.181156 -19.7297 70.5477 21.8328 8.13649 25.2327 -3.48773 -177.701 3.3087 5.21858 4.54188e-006 -4.6773e-006 -1.25688 -4.33047 -15.3003 -0.223296 1.02381e-006 2.82354e-007 -0.356196 26.7767 73.2334 -25.6617 -8.13719 25.243 3.48937 
54.8389 93.8143 36.8753 -1.66623 -1.95162 2.86308 0.321312 -1.07301 0.0160582 0.650019 1.85674 0.00298667 0.650808 3.50175 -0.00795413 -4.60084 21.6527 1.19846 2.26869 -9.64453 0.0582073 80.8076 -4.51486 -4.19983 89.9764 1.99502 17.68 -5.36719e-015 3.18055e-015 -0 10.9155 18.4656 -2.94779 -2.44912e-005 3.21514e-006 -3 8.02896 -4.95149 0.697711 -62.732 -2.82023 2.09831 -108.546 -2.66667 -12.3427 6.36111e-015 3.97569e-015 9.54166e-015 -6.89079 16.2033 2.24931 5.55889e-006 8.89805e-007 3 -8.02928 -4.95144 -0.69766 -179.093 2.35624 -2.02785 180 7.01554e-015 178.956 179.166 11.4637 179.449 1.60277e-006 -1.13988e-006 0.181148 -19.7459 70.5568 21.843 8.13649 25.2327 -3.48773 -177.707 3.3312 5.23292 4.54188e-006 -4.6773e-006 -1.25652 -4.31658 -15.3171 -0.221148 1.02381e-006 2.82354e-007 -0.35656 26.7596 73.229 -25.6564 -8.13719 25.243 3.48937 
54.8448 93.8197 36.8724 -1.66301 -1.95191 2.92495 0.320986 -1.06612 0.0142478 0.650212 1.87051 -0.00156793 0.651054 3.51552 -0.0125191 -4.63607 21.6712 1.19547 2.29103 -9.6042 0.0457066 80.7679 -4.52067 -4.19973 90.0302 1.98794 17.6308 -1.15295e-014 4.77083e-015 3.18055e-015 10.9388 18.5008 -2.95495 -2.44912e-005 3.21514e-006 -3 8.02896 -4.95149 0.697711 -62.7533 -2.8085 2.09346 -108.52 -2.6289 -12.3654 -2.38542e-015 0 6.36111e-015 -6.86637 16.1673 2.241 5.55889e-006 8.89805e-007 3 -8.02928 -4.95144 -0.69766 -179.088 2.35033 -2.02851 180 7.01554e-015 178.956 179.165 11.4662 179.45 1.60277e-006 -1.13988e-006 0.181141 -19.762 70.5658 21.8532 8.13649 25.2327 -3.48773 -177.712 3.3541 5.24709 4.54188e-006 -4.6773e-006 -1.25615 -4.30275 -15.3341 -0.219012 1.02381e-006 2.82354e-007 -0.356923 26.7426 73.2246 -25.6512 -8.13719 25.243 3.48937 
54.8383 93.8189 36.867 -1.66009 -1.95167 2.9866 0.3207 -1.05932 0.0124434 0.650468 1.8841 -0.00609562 0.651362 3.52911 -0.017058 -4.66984 21.6894 1.19236 2.31117 -9.56298 0.0332044 80.7284 -4.52645 -4.19961 90.0837 1.98138 17.5793 -5.36719e-015 3.97569e-015 3.18055e-015 10.9634 18.5364 -2.96226 -2.44912e-005 3.21514e-006 -3 8.02896 -4.95149 0.697711 -62.7744 -2.79682 2.08864 -108.494 -2.59106 -12.3879 -6.75868e-015 -3.18055e-015 6.36111e-015 -6.84208 16.1317 2.23277 5.55889e-006 8.89805e-007 3 -8.02928 -4.95144 -0.69766 -179.084 2.3452 -2.02958 180 7.01554e-015 178.956 179.164 11.4687 179.45 1.60277e-006 -1.13988e-006 0.181134 -19.7781 70.5747 21.8633 8.13649 25.2327 -3.48773 -177.717 3.37804 5.26084 4.54188e-006 -4.6773e-006 -1.25577 -4.2891 -15.3518 -0.216907 1.02381e-006 2.82354e-007 -0.357285 26.7255 73.2203 -25.6461 -8.13719 25.243 3.48937 
